<?xml version="1.0" encoding="UTF-8"?>
<svg width="71px" height="71px" viewBox="0 0 71 71" version="1.1" xmlns="http://www.w3.org/2000/svg" xmlns:xlink="http://www.w3.org/1999/xlink">
    <!-- Generator: Sketch 50.2 (55047) - http://www.bohemiancoding.com/sketch -->
    <title>Group 7</title>
    <desc>Created with Sketch.</desc>
    <defs>
        <path d="M9,7 L15,7 C15.5522847,7 16,7.4477153 16,8 C16,8.5522847 15.5522847,9 15,9 L9,9 L9,15 C9,15.5522847 8.5522847,16 8,16 C7.4477153,16 7,15.5522847 7,15 L7,9 L1,9 C0.44771525,9 0,8.5522847 0,8 C0,7.4477153 0.44771525,7 1,7 L7,7 L7,1 C7,0.44771525 7.4477153,0 8,0 C8.5522847,0 9,0.44771525 9,1 L9,7 Z" id="path-1"></path>
    </defs>
    <g id="Mobile" stroke="none" stroke-width="1" fill="none" fill-rule="evenodd">
        <g id="Group-7">
            <g id="Group-4">
                <g id="Group-5">
                    <circle id="Oval-2-Copy-2" fill-opacity="0.3" fill="#FFFCFA" cx="35.5" cy="35.5" r="35.5"></circle>
                    <g id="plus" transform="translate(28.000000, 28.000000)">
                        <g id="Combined-Shape" fill="#000000" fill-rule="nonzero">
                            <path d="M9,7 L15,7 C15.5522847,7 16,7.4477153 16,8 C16,8.5522847 15.5522847,9 15,9 L9,9 L9,15 C9,15.5522847 8.5522847,16 8,16 C7.4477153,16 7,15.5522847 7,15 L7,9 L1,9 C0.44771525,9 0,8.5522847 0,8 C0,7.4477153 0.44771525,7 1,7 L7,7 L7,1 C7,0.44771525 7.4477153,0 8,0 C8.5522847,0 9,0.44771525 9,1 L9,7 Z" id="path-1"></path>
                        </g>
                        <g id="COLOR/-black-Clipped">
                            <mask id="mask-2" fill="white">
                                <use xlink:href="#path-1"></use>
                            </mask>
                            <g id="path-1"></g>
                            <g id="COLOR/-black" mask="url(#mask-2)" fill="#FFFCFA">
                                <g transform="translate(-4.000000, -4.000000)" id="Rectangle">
                                    <rect x="0" y="0" width="24" height="24"></rect>
                                </g>
                            </g>
                        </g>
                    </g>
                </g>
            </g>
        </g>
    </g>
</svg>