<?xml version="1.0" encoding="UTF-8"?>
<svg width="71px" height="71px" viewBox="0 0 71 71" version="1.1" xmlns="http://www.w3.org/2000/svg" xmlns:xlink="http://www.w3.org/1999/xlink">
    <!-- Generator: Sketch 50.2 (55047) - http://www.bohemiancoding.com/sketch -->
    <title>Group 4</title>
    <desc>Created with Sketch.</desc>
    <defs></defs>
    <g id="Mobile" stroke="none" stroke-width="1" fill="none" fill-rule="evenodd">
        <g id="Mobile---Communauté" transform="translate(-53.000000, -78.000000)">
            <g id="Group-3" transform="translate(-192.000000, 78.000000)">
                <g id="Group">
                    <g id="Group-4" transform="translate(245.000000, 0.000000)">
                        <g id="Group-7">
                            <g id="Group-5">
                                <circle id="Oval-2-Copy-2" fill-opacity="0.3" fill="#FFFCFA" cx="35.5" cy="35.5" r="35.5"></circle>
                                <g id="plus" transform="translate(37.000000, 28.000000)">
                                    <g id="Combined-Shape"></g>
                                </g>
                            </g>
                            <path d="M34.620438,29 L37.379562,29 C37.5328467,29 37.6350365,29.1192214 37.6350365,29.2554745 L37.6350365,34.3649635 L42.7445255,34.3649635 C42.8978102,34.3649635 43,34.4841849 43,34.620438 L43,37.379562 C43,37.5328467 42.8978102,37.6350365 42.7445255,37.6350365 L37.6350365,37.6350365 L37.6350365,42.7445255 C37.6350365,42.8978102 37.5328467,43 37.379562,43 L34.620438,43 C34.4841849,43 34.3649635,42.8978102 34.3649635,42.7445255 L34.3649635,37.6350365 L29.2554745,37.6350365 C29.1192214,37.6350365 29,37.5328467 29,37.379562 L29,34.620438 C29,34.4841849 29.1192214,34.3649635 29.2554745,34.3649635 L34.3649635,34.3649635 L34.3649635,29.2554745 C34.3649635,29.1192214 34.4841849,29 34.620438,29 Z" id="Shape" fill="#FFFCFA"></path>
                        </g>
                    </g>
                </g>
            </g>
        </g>
    </g>
</svg>