<?xml version="1.0" encoding="UTF-8"?>
<svg width="14px" height="14px" viewBox="0 0 14 14" version="1.1" xmlns="http://www.w3.org/2000/svg" xmlns:xlink="http://www.w3.org/1999/xlink">
    <!-- Generator: Sketch 50.2 (55047) - http://www.bohemiancoding.com/sketch -->
    <title>arrow-up-right</title>
    <desc>Created with Sketch.</desc>
    <defs>
        <path d="M15.5857864,7 L9,7 C8.44771525,7 8,6.55228475 8,6 C8,5.44771525 8.44771525,5 9,5 L18,5 C18.5522847,5 19,5.44771525 19,6 L19,15 C19,15.5522847 18.5522847,16 18,16 C17.4477153,16 17,15.5522847 17,15 L17,8.41421356 L6.70710678,18.7071068 C6.31658249,19.0976311 5.68341751,19.0976311 5.29289322,18.7071068 C4.90236893,18.3165825 4.90236893,17.6834175 5.29289322,17.2928932 L15.5857864,7 Z" id="path-1"></path>
    </defs>
    <g id="🕹-Icons" stroke="none" stroke-width="1" fill="none" fill-rule="evenodd">
        <g id="Feather" transform="translate(-854.000000, -607.000000)">
            <g id="arrow-up-right" transform="translate(849.000000, 602.000000)">
                <mask id="mask-2" fill="white">
                    <use xlink:href="#path-1"></use>
                </mask>
                <use id="Combined-Shape" fill="#000000" fill-rule="nonzero" xlink:href="#path-1"></use>
                <g id="COLOR/-black" mask="url(#mask-2)" fill="#000000" fill-rule="evenodd">
                    <rect id="Rectangle" x="0" y="0" width="24" height="24"></rect>
                </g>
            </g>
        </g>
    </g>
</svg>