<?xml version="1.0" encoding="UTF-8"?>
<svg width="14px" height="14px" viewBox="0 0 14 14" version="1.1" xmlns="http://www.w3.org/2000/svg" xmlns:xlink="http://www.w3.org/1999/xlink">
    <!-- Generator: Sketch 50.2 (55047) - http://www.bohemiancoding.com/sketch -->
    <title>arrow-up-left</title>
    <desc>Created with Sketch.</desc>
    <defs>
        <path d="M17,15.5857864 L17,9 C17,8.44771525 17.4477153,8 18,8 C18.5522847,8 19,8.44771525 19,9 L19,18 C19,18.5522847 18.5522847,19 18,19 L9,19 C8.44771525,19 8,18.5522847 8,18 C8,17.4477153 8.44771525,17 9,17 L15.5857864,17 L5.29289322,6.70710678 C4.90236893,6.31658249 4.90236893,5.68341751 5.29289322,5.29289322 C5.68341751,4.90236893 6.31658249,4.90236893 6.70710678,5.29289322 L17,15.5857864 Z" id="path-1"></path>
    </defs>
    <g id="🕹-Icons" stroke="none" stroke-width="1" fill="none" fill-rule="evenodd">
        <g id="Feather" transform="translate(-102.000000, -677.000000)">
            <g id="arrow-up-left" transform="translate(97.000000, 672.000000)">
                <mask id="mask-2" fill="white">
                    <use xlink:href="#path-1"></use>
                </mask>
                <use id="Combined-Shape" fill="#000000" fill-rule="nonzero" transform="translate(12.000000, 12.000000) scale(-1, -1) translate(-12.000000, -12.000000) " xlink:href="#path-1"></use>
                <g id="COLOR/-black" mask="url(#mask-2)" fill="#000000" fill-rule="evenodd">
                    <rect id="Rectangle" x="0" y="0" width="24" height="24"></rect>
                </g>
            </g>
        </g>
    </g>
</svg>