<svg version="1.1" class="team svg" xmlns="http://www.w3.org/2000/svg" xmlns:xlink="http://www.w3.org/1999/xlink" x="0px" y="0px"
	 viewBox="0 0 16 24" style="enable-background:new 0 0 16 24;" xml:space="preserve">
<path class="st0" d="M8,16c1.1,0,2.1-0.2,3-0.6l0.8,5.7l-3.2-1.9C8.4,19,8.2,19,8,19c-0.2,0-0.4,0-0.5,0.1l-3.2,1.9L5,15.4
	C5.9,15.8,6.9,16,8,16 M8,14c-3.3,0-6-2.7-6-6s2.7-6,6-6s6,2.7,6,6c0,2.1-1.1,3.9-2.7,5l-0.2,0.1C10.2,13.7,9.2,14,8,14 M8,0L8,0
	C3.6,0,0,3.6,0,8c0,2.6,1.2,4.9,3.1,6.4L2,22.9C1.9,23.5,2.4,24,2.9,24l0,0h0.1l0,0c0.2,0,0.3-0.1,0.4-0.1L8,21.2l4.5,2.7
	c0.1,0.1,0.3,0.1,0.4,0.1l0,0h0.1l0,0c0.5,0,1-0.5,0.9-1.1l-1.1-8.5C14.8,12.9,16,10.6,16,8C16,3.6,12.4,0,8,0"/>
</svg>
