<?xml version="1.0" encoding="UTF-8"?>
<svg width="25px" height="25px" viewBox="0 0 25 25" version="1.1" xmlns="http://www.w3.org/2000/svg" xmlns:xlink="http://www.w3.org/1999/xlink">
    <!-- Generator: Sketch 50.2 (55047) - http://www.bohemiancoding.com/sketch -->
    <title>Group 5</title>
    <desc>Created with Sketch.</desc>
    <defs></defs>
    <g id="Mobile" stroke="none" stroke-width="1" fill="none" fill-rule="evenodd">
        <g id="Mobile---Timeline" transform="translate(-20.000000, -519.000000)">
            <g id="Group-5" transform="translate(20.000000, 519.000000)">
                <circle id="Oval-4-Copy-2" fill="#E6A587" cx="12.5" cy="12.5" r="12.5"></circle>
                <g id="package" transform="translate(6.000000, 5.000000)" fill="#FFFCFA" fill-rule="nonzero">
                    <g id="Combined-Shape">
                        <path d="M9.72500189,5.71760089 C9.7211917,5.71967073 9.71736155,5.72169624 9.71351219,5.72367716 L7.09095199,7.11060806 L7.09095199,13.2161907 L11.4902702,10.8896301 C11.6910782,10.7840895 11.8181058,10.5674251 11.8182247,10.3305868 L11.8182248,4.61060799 L9.72500384,5.71759986 L9.72500189,5.71760089 Z M4.8697643,2.03839898 L9.45458835,4.46306554 L11.0848664,3.60089929 L6.76245493,1.31500864 C6.59693113,1.22823564 6.40255046,1.22832981 6.23839639,1.31460378 L4.8697643,2.03839898 Z M3.54845084,2.73716993 L1.91521758,3.60089831 L6.5000429,6.02556554 L8.13327544,5.16183679 L3.54845084,2.73716993 Z M3.23168047,1.50715246 C3.2636546,1.48600498 3.29739838,1.4681902 3.33239299,1.45389108 L5.71117926,0.195880183 C6.20810361,-0.0652933944 6.79198219,-0.0652933944 7.28890654,0.195880183 L12.0161792,2.69588014 C12.618603,3.01250203 12.9996859,3.66249516 13.0000429,4.37433679 L13.0000428,10.3309184 C12.9996859,11.0424284 12.618603,11.6924216 12.0174873,12.0083538 L7.29038381,14.5082643 C6.79103496,14.7725544 6.20314175,14.7725544 5.70396214,14.5083538 L0.975057211,12.0074873 C0.373209571,11.6867394 -0.0046328379,11.0327814 4.28986876e-05,10.3243368 L4.29814149e-05,4.37400514 C0.000399943688,3.66249516 0.381482771,3.01250203 0.982598505,2.69656979 L3.23168047,1.50715246 Z M5.90913381,13.2193156 L5.90913381,7.11060806 L1.18183239,4.61060773 L1.18184677,10.3286863 C1.18028342,10.5662844 1.30623089,10.7842704 1.50521457,10.8903198 L5.90913381,13.2193156 Z" id="path-1"></path>
                    </g>
                </g>
            </g>
        </g>
    </g>
</svg>