<svg xmlns="http://www.w3.org/2000/svg" viewBox="0 0 372 341.93"><defs><style>.cls-1{fill:#a5c8b4;}.cls-2{fill:#ce8a72;}.cls-3{fill:#e6a587;}.cls-4{fill:#dd987c;}.cls-5{fill:none;stroke:#a5c8b4;stroke-linecap:round;stroke-linejoin:round;stroke-width:7px;}</style></defs><title>Asset 8</title><g id="Layer_2" data-name="Layer 2"><g id="Calque_1" data-name="Calque 1"><ellipse class="cls-1" cx="187" cy="300.33" rx="172" ry="41.6"/><polygon class="cls-2" points="62 122.68 62 221.68 312 212.18 312 122.68 187 93.68 62 122.68"/><polygon class="cls-3" points="62 293.68 187 328.68 187 157.33 62 122.68 62 293.68"/><polygon class="cls-4" points="187 328.68 312 294.68 312 122.68 187 157.33 187 328.68"/><polygon class="cls-3" points="372 175.68 312 122.68 187 157.33 249.5 212.18 372 175.68"/><polygon class="cls-3" points="62 189.68 0 175.68 62 122.68 62 189.68"/><polygon class="cls-3" points="0 102.68 62 122.68 187 93.68 129.67 71.92 0 102.68"/><polygon class="cls-3" points="187 93.68 312 122.68 372 71.92 249.5 41.68 187 93.68"/><polygon class="cls-4" points="62 189.68 62 212.68 132 231.68 187 183.68 187 157.33 124.5 207.25 62 189.68"/><polygon class="cls-2" points="312 218.68 312 193.68 249.5 212.18 187 157.33 187 183.68 249.5 236.18 312 218.68"/><line class="cls-5" x1="53.23" y1="28.61" x2="66.52" y2="45.57"/><line class="cls-5" x1="114.2" y1="3.5" x2="118.61" y2="25.06"/><line class="cls-5" x1="179.15" y1="5.89" x2="172.56" y2="26.18"/></g></g></svg>