<?xml version="1.0" encoding="UTF-8"?>
<svg width="25px" height="25px" viewBox="0 0 25 25" version="1.1" xmlns="http://www.w3.org/2000/svg" xmlns:xlink="http://www.w3.org/1999/xlink">
    <!-- Generator: Sketch 50.2 (55047) - http://www.bohemiancoding.com/sketch -->
    <title>Group 2</title>
    <desc>Created with Sketch.</desc>
    <defs></defs>
    <g id="Mobile" stroke="none" stroke-width="1" fill="none" fill-rule="evenodd">
        <g id="Mobile---Timeline" transform="translate(-20.000000, -398.000000)">
            <g id="Group-2" transform="translate(20.000000, 398.000000)">
                <circle id="Oval-4-Copy-3" fill="#E6A587" cx="12.5" cy="12.5" r="12.5"></circle>
                <g id="calendar" transform="translate(6.000000, 5.000000)" fill="#FFFCFA" fill-rule="nonzero">
                    <g id="Combined-Shape">
                        <g id="Group">
                            <path d="M11.7,5.09090909 L11.7,3.18181818 C11.7,2.83036425 11.4089851,2.54545455 11.05,2.54545455 L9.75,2.54545455 L9.75,3.18181818 C9.75,3.53327211 9.45898505,3.81818182 9.1,3.81818182 C8.74101494,3.81818182 8.45,3.53327211 8.45,3.18181818 L8.45,2.54545455 L4.55,2.54545455 L4.55,3.18181818 C4.55,3.53327211 4.25898509,3.81818182 3.9,3.81818182 C3.54101491,3.81818182 3.25,3.53327211 3.25,3.18181818 L3.25,2.54545455 L1.95,2.54545455 C1.59101491,2.54545455 1.3,2.83036425 1.3,3.18181818 L1.3,5.09090909 L11.7,5.09090909 Z M11.7,6.36363636 L1.3,6.36363636 L1.3,12.0909091 C1.3,12.442363 1.59101491,12.7272727 1.95,12.7272727 L11.05,12.7272727 C11.4089851,12.7272727 11.7,12.442363 11.7,12.0909091 L11.7,6.36363636 Z M4.55,1.27272727 L8.45,1.27272727 L8.45,0.636363636 C8.45,0.284909705 8.74101494,0 9.1,0 C9.45898506,0 9.75,0.284909705 9.75,0.636363636 L9.75,1.27272727 L11.05,1.27272727 C12.1269552,1.27272727 13,2.12745639 13,3.18181818 L13,12.0909091 C13,13.1452709 12.1269552,14 11.05,14 L1.95,14 C0.873044738,14 0,13.1452709 0,12.0909091 L0,3.18181818 C0,2.12745639 0.873044738,1.27272727 1.95,1.27272727 L3.25,1.27272727 L3.25,0.636363636 C3.25,0.284909705 3.54101491,0 3.9,0 C4.25898509,0 4.55,0.284909705 4.55,0.636363636 L4.55,1.27272727 Z" id="path-1"></path>
                        </g>
                    </g>
                </g>
            </g>
        </g>
    </g>
</svg>