<?xml version="1.0" encoding="UTF-8"?>
<svg width="55px" height="55px" viewBox="0 0 55 55" version="1.1" xmlns="http://www.w3.org/2000/svg" xmlns:xlink="http://www.w3.org/1999/xlink">
    <!-- Generator: Sketch 50.2 (55047) - http://www.bohemiancoding.com/sketch -->
    <title>Group 3</title>
    <desc>Created with Sketch.</desc>
    <defs>
        <circle id="path-1" cx="23.5" cy="23.5" r="23.5"></circle>
        <filter x="-14.9%" y="-10.6%" width="129.8%" height="129.8%" filterUnits="objectBoundingBox" id="filter-2">
            <feOffset dx="0" dy="2" in="SourceAlpha" result="shadowOffsetOuter1"></feOffset>
            <feGaussianBlur stdDeviation="2" in="shadowOffsetOuter1" result="shadowBlurOuter1"></feGaussianBlur>
            <feColorMatrix values="0 0 0 0 0   0 0 0 0 0   0 0 0 0 0  0 0 0 0.154070426 0" type="matrix" in="shadowBlurOuter1"></feColorMatrix>
        </filter>
    </defs>
    <g id="Mobile" stroke="none" stroke-width="1" fill="none" fill-rule="evenodd">
        <g id="Mobile---Communauté-Chat-1" transform="translate(-305.000000, -528.000000)">
            <g id="Group-3" transform="translate(309.000000, 530.000000)">
                <g id="Group-2">
                    <g id="Oval">
                        <use fill="black" fill-opacity="1" filter="url(#filter-2)" xlink:href="#path-1"></use>
                        <use fill="#A5C8B4" fill-rule="evenodd" xlink:href="#path-1"></use>
                    </g>
                </g>
                <g id="send" transform="translate(11.000000, 12.000000)" fill="#FFFCFA" fill-rule="nonzero">
                    <path d="M15.3744714,8.32215075 C15.5354152,8.11487886 15.5149742,7.81794331 15.3271849,7.63524769 C15.1393957,7.45255207 14.8453448,7.44352594 14.646955,7.61436749 L5.55299968,15.4424504 L0.75069176,13.5632858 C0.324081799,13.398099 0.0317588094,12.9964913 0.00242258976,12.5352767 C-0.0269136298,12.0740622 0.212118934,11.6378551 0.614282431,11.4187025 L20.5510305,0.11894274 C20.8702921,-0.0550628891 21.2583134,-0.0370579064 21.5604937,0.165783898 C21.862674,0.368625703 22.0299104,0.723343502 21.9955704,1.08860581 L20.2467328,19.5334376 C20.2112223,19.9170174 19.9988597,20.2611369 19.6738202,20.4618046 C19.3487807,20.6624723 18.9492001,20.6961445 18.5958302,20.5526455 L12.7512151,18.2629667 L9.08215387,21.7417214 C8.80537379,22.0033574 8.40121831,22.0731512 8.0543359,21.9192159 C7.70745348,21.7652806 7.48445153,21.4171743 7.48721402,21.0339381 L7.48721402,18.3018947 L15.3744714,8.32215075 Z" id="Shape"></path>
                </g>
            </g>
        </g>
    </g>
</svg>