<?xml version="1.0" encoding="UTF-8"?>
<svg width="30px" height="30px" viewBox="0 0 30 30" version="1.1" xmlns="http://www.w3.org/2000/svg" xmlns:xlink="http://www.w3.org/1999/xlink">
    <!-- Generator: Sketch 50.2 (55047) - http://www.bohemiancoding.com/sketch -->
    <title>message-square</title>
    <desc>Created with Sketch.</desc>
    <defs></defs>
    <g id="Mobile" stroke="none" stroke-width="1" fill="none" fill-rule="evenodd">
        <g id="Mobile---Communauté" transform="translate(-298.000000, -530.000000)" fill-rule="nonzero">
            <g id="Group-6" transform="translate(277.000000, 509.000000)">
                <g id="message-square" transform="translate(36.000000, 36.000000) scale(-1, 1) translate(-36.000000, -36.000000) translate(21.000000, 21.000000)">
                    <g id="Shape" fill="#FFFCFA">
                        <path d="M25.5,0 L4.5,0 C1.95,0 0,1.95 0,4.5 L0,19.5 C0,22.05 1.95,24 4.5,24 L21.9,24 L27.45,29.55 C28.35,30.45 30,29.85 30,28.5 L30,4.5 C30,1.95 28.05,0 25.5,0 Z"></path>
                    </g>
                    <g id="Group" transform="translate(7.000000, 11.000000)" fill="#A5C8B4">
                        <ellipse id="Oval" cx="1.83333333" cy="1.73333333" rx="1.7" ry="1.6"></ellipse>
                        <ellipse id="Oval" cx="7.5" cy="1.73333333" rx="1.7" ry="1.6"></ellipse>
                        <ellipse id="Oval" cx="13.1666667" cy="1.73333333" rx="1.7" ry="1.6"></ellipse>
                    </g>
                </g>
            </g>
        </g>
    </g>
</svg>