<?xml version="1.0" encoding="UTF-8"?>
<svg width="47px" height="47px" viewBox="0 0 47 47" version="1.1" xmlns="http://www.w3.org/2000/svg" xmlns:xlink="http://www.w3.org/1999/xlink">
    <!-- Generator: Sketch 50.2 (55047) - http://www.bohemiancoding.com/sketch -->
    <title>Group</title>
    <desc>Created with Sketch.</desc>
    <defs>
        <path d="M11.4192899,9.5 L18.6025021,16.6832122 C19.1324994,17.2132095 19.1324994,18.0725048 18.6025021,18.6025021 C18.0725048,19.1324994 17.2132095,19.1324994 16.6832122,18.6025021 L9.5,11.4192899 L2.31678777,18.6025021 C1.78679052,19.1324994 0.927495192,19.1324994 0.397497942,18.6025021 C-0.132499309,18.0725048 -0.132499309,17.2132095 0.397497942,16.6832122 L7.58071011,9.5 L0.397497942,2.31678777 C-0.132499309,1.78679052 -0.132499309,0.927495192 0.397497942,0.397497942 C0.927495192,-0.132499309 1.78679052,-0.132499309 2.31678777,0.397497942 L9.5,7.58071011 L16.6832122,0.397497942 C17.2132095,-0.132499309 18.0725048,-0.132499309 18.6025021,0.397497942 C19.1324994,0.927495192 19.1324994,1.78679052 18.6025021,2.31678777 L11.4192899,9.5 Z" id="path-1"></path>
    </defs>
    <g id="Mobile" stroke="none" stroke-width="1" fill="none" fill-rule="evenodd">
        <g id="Mobile---Communauté-Chat-Copy" transform="translate(-309.000000, -18.000000)">
            <g id="Group" transform="translate(309.000000, 18.000000)">
                <circle id="Oval-Copy" fill="#FFFCFA" cx="23.5" cy="23.5" r="23.5"></circle>
                <g id="x" transform="translate(14.000000, 14.000000)">
                    <g id="Combined-Shape" fill="#000000" fill-rule="nonzero">
                        <path d="M11.4192899,9.5 L18.6025021,16.6832122 C19.1324994,17.2132095 19.1324994,18.0725048 18.6025021,18.6025021 C18.0725048,19.1324994 17.2132095,19.1324994 16.6832122,18.6025021 L9.5,11.4192899 L2.31678777,18.6025021 C1.78679052,19.1324994 0.927495192,19.1324994 0.397497942,18.6025021 C-0.132499309,18.0725048 -0.132499309,17.2132095 0.397497942,16.6832122 L7.58071011,9.5 L0.397497942,2.31678777 C-0.132499309,1.78679052 -0.132499309,0.927495192 0.397497942,0.397497942 C0.927495192,-0.132499309 1.78679052,-0.132499309 2.31678777,0.397497942 L9.5,7.58071011 L16.6832122,0.397497942 C17.2132095,-0.132499309 18.0725048,-0.132499309 18.6025021,0.397497942 C19.1324994,0.927495192 19.1324994,1.78679052 18.6025021,2.31678777 L11.4192899,9.5 Z" id="path-1"></path>
                    </g>
                    <g id="COLOR/-black-Clipped">
                        <mask id="mask-2" fill="white">
                            <use xlink:href="#path-1"></use>
                        </mask>
                        <use id="path-1" fill="#A5C8B4" xlink:href="#path-1"></use>
                    </g>
                </g>
            </g>
        </g>
    </g>
</svg>