<svg xmlns="http://www.w3.org/2000/svg" viewBox="0 0 147 147"><defs><style>.cls-1{fill:#a5c8b4;}.cls-2{fill:#fffcfa;}.cls-3{opacity:0.5;}.cls-4{fill:#fff;}</style></defs><title>Asset 9</title><g id="Layer_2" data-name="Layer 2"><g id="Calque_1" data-name="Calque 1"><rect class="cls-1" width="147" height="147" rx="24.38" ry="24.38"/><path class="cls-2" d="M48.45,109.73v-70H59.24l1.32,6.56a15.34,15.34,0,0,1,7.13-5.93,20.29,20.29,0,0,1,7.67-1.46q.78,0,1.61,0a28.06,28.06,0,0,1,10.51,2.64,21.3,21.3,0,0,1,7.42,5.72,25.15,25.15,0,0,1,4.23,7.63,26.31,26.31,0,0,1,1.44,8.65,23.75,23.75,0,0,1-7.1,17.61q-7.1,7-18.68,7-9,0-13.43-6.44v28Zm13.4-46.51v.29A13.44,13.44,0,0,0,65.37,73q3.66,3.88,10,3.88t9.81-4a14.13,14.13,0,0,0,2.66-14.16,14.39,14.39,0,0,0-2.47-4.27,11.85,11.85,0,0,0-4.2-3.14,13.63,13.63,0,0,0-5.81-1.2,13.26,13.26,0,0,0-9.77,3.68A12.65,12.65,0,0,0,61.86,63.22Z"/><g class="cls-3"><path class="cls-4" d="M89.61,117.88q.51-.71,2.19-3.2A36.68,36.68,0,0,0,94.49,110a7.23,7.23,0,0,1-4.58-2.64,7.59,7.59,0,0,1-1.52-4.68,7.38,7.38,0,0,1,2.24-5.59,8.43,8.43,0,0,1,11.59.36,7.93,7.93,0,0,1,2.54,5.85,15.63,15.63,0,0,1-3.15,9.4,47.54,47.54,0,0,1-5.49,6.51q-2.34,2.19-2.74,2.59Z"/></g></g></g></svg>