<svg id="Calque_1" data-name="Calque 1" xmlns="http://www.w3.org/2000/svg" viewBox="0 0 683.99 228.4"><defs><style>.cls-1{fill:#a5c8b4;}.cls-2{fill:#fffcfa;}.cls-3{opacity:0.5;}.cls-4{fill:#fff;}</style></defs><title>paaper</title><rect class="cls-1" x="-26.45" y="-6.72" width="736.89" height="243.88"/><path class="cls-2" d="M63,186.57v-114H80.62l2.15,10.69a25,25,0,0,1,11.61-9.66,33,33,0,0,1,12.48-2.38q1.27,0,2.61.08a45.7,45.7,0,0,1,17.11,4.3,34.7,34.7,0,0,1,12.08,9.31,41,41,0,0,1,6.89,12.42,42.85,42.85,0,0,1,2.34,14.09q0,17.24-11.57,28.68t-30.42,11.44Q91.2,151.51,84,141v45.55Zm21.83-75.74v.48q0,9.36,5.73,15.51,6,6.32,16.22,6.32t16-6.48a23,23,0,0,0,4.33-23.07,23.44,23.44,0,0,0-4-7,19.3,19.3,0,0,0-6.84-5.12,22.19,22.19,0,0,0-9.46-2q-9.86,0-15.9,6A20.6,20.6,0,0,0,84.88,110.83Z"/><path class="cls-2" d="M348,186.57v-114h17.57l2.15,10.69a25,25,0,0,1,11.61-9.66,33,33,0,0,1,12.48-2.38q1.27,0,2.61.08a45.7,45.7,0,0,1,17.11,4.3,34.7,34.7,0,0,1,12.08,9.31,41,41,0,0,1,6.89,12.42,42.85,42.85,0,0,1,2.34,14.09q0,17.24-11.57,28.68t-30.42,11.44Q376.2,151.51,369,141v45.55Zm21.83-75.74v.48q0,9.36,5.73,15.51,6,6.32,16.22,6.32t16-6.48a23,23,0,0,0,4.33-23.07,23.44,23.44,0,0,0-4-7,19.3,19.3,0,0,0-6.84-5.12,22.19,22.19,0,0,0-9.46-2q-9.86,0-15.9,6A20.6,20.6,0,0,0,369.87,110.83Z"/><path class="cls-2" d="M158.31,126.06a21.82,21.82,0,0,1,2.78-11.17,19.63,19.63,0,0,1,7.63-7.46,39.64,39.64,0,0,1,10.62-3.95,57.92,57.92,0,0,1,12.52-1.28h24.57a17.27,17.27,0,0,0-7.32-9.77,22.69,22.69,0,0,0-11.61-3.75H196.4a30.29,30.29,0,0,0-11.21,2.2,21,21,0,0,0-9.46,7L162.37,86.11q10.58-16.18,35-16.19a49.08,49.08,0,0,1,14.83,2.27,45.51,45.51,0,0,1,13,6.44,31.23,31.23,0,0,1,9.34,10.77A30.31,30.31,0,0,1,238.07,104v29.5l.8,16.1H220l-2-10.27a24.63,24.63,0,0,1-11.41,9.18,40.35,40.35,0,0,1-15.94,3.19,48,48,0,0,1-11.89-1.59,37.78,37.78,0,0,1-10.3-4.44,21.13,21.13,0,0,1-7.44-8A23.88,23.88,0,0,1,158.31,126.06Zm23.62,4.74a13.91,13.91,0,0,0,5.57,2.57,26.08,26.08,0,0,0,5.33.56h.64a39.73,39.73,0,0,0,7.47-.84,29.13,29.13,0,0,0,7.08-2.53,16.09,16.09,0,0,0,5.88-5.1,17.58,17.58,0,0,0,3-8H191.16a15.08,15.08,0,0,0-8.27,2.33,6.9,6.9,0,0,0-3.58,6.1A6,6,0,0,0,181.93,130.8Z"/><path class="cls-2" d="M251.27,126.06a21.82,21.82,0,0,1,2.78-11.17,19.63,19.63,0,0,1,7.63-7.46,39.64,39.64,0,0,1,10.62-3.95,57.92,57.92,0,0,1,12.52-1.28H309.4a17.27,17.27,0,0,0-7.32-9.77,22.69,22.69,0,0,0-11.61-3.75h-1.11a30.29,30.29,0,0,0-11.21,2.2,21,21,0,0,0-9.46,7L255.33,86.11q10.58-16.18,35-16.19a49.08,49.08,0,0,1,14.83,2.27,45.51,45.51,0,0,1,13,6.44,31.23,31.23,0,0,1,9.34,10.77A30.31,30.31,0,0,1,331,104v29.5l.8,16.1H313l-2-10.27a24.63,24.63,0,0,1-11.41,9.18,40.35,40.35,0,0,1-15.94,3.19,48,48,0,0,1-11.89-1.59,37.78,37.78,0,0,1-10.3-4.44,21.13,21.13,0,0,1-7.44-8A23.88,23.88,0,0,1,251.27,126.06Zm23.62,4.74a13.91,13.91,0,0,0,5.57,2.57,26.08,26.08,0,0,0,5.33.56h.64a39.73,39.73,0,0,0,7.47-.84,29.13,29.13,0,0,0,7.08-2.53,16.09,16.09,0,0,0,5.88-5.1,17.58,17.58,0,0,0,3-8H284.11a15.08,15.08,0,0,0-8.27,2.33,6.9,6.9,0,0,0-3.58,6.1A6,6,0,0,0,274.89,130.8Z"/><path class="cls-2" d="M455.2,140.21q-11.49-11.13-11.49-28.81T455.32,82.5q11.61-11.23,29.9-11.23,20,0,31.17,13.12Q526,95.76,526,113.34q0,2.78-.24,5.65H465.18a16.88,16.88,0,0,0,2.86,7,14.76,14.76,0,0,0,5.21,4.57,25.52,25.52,0,0,0,6.32,2.31,32.2,32.2,0,0,0,6.92.72q13.6,0,17.89-7.79l17.18,6q-10.42,19.48-36.82,19.48Q466.69,151.35,455.2,140.21Zm10-37.06h40.4a16,16,0,0,0-7.32-10.5A23.68,23.68,0,0,0,485.38,89a22.9,22.9,0,0,0-13,3.74A16.72,16.72,0,0,0,465.18,103.16Z"/><path class="cls-2" d="M540.57,149.56v-77h17.89l1.35,9q6.92-10.77,20.36-10.77a37.37,37.37,0,0,1,13.08,2.44,24.93,24.93,0,0,1,10.85,7.7l-9.3,13.9a19.11,19.11,0,0,0-13.36-5.27,19.58,19.58,0,0,0-13.8,5.35,19,19,0,0,0-6.08,13.81v40.84Z"/><g class="cls-3"><path class="cls-4" d="M602.65,162.6q.83-1.17,3.56-5.25a60.18,60.18,0,0,0,4.39-7.58,11.76,11.76,0,0,1-7.45-4.33,12.48,12.48,0,0,1-2.48-7.66,12.13,12.13,0,0,1,3.64-9.16,13.9,13.9,0,0,1,23,10.16,25.71,25.71,0,0,1-5.13,15.41,77.76,77.76,0,0,1-8.94,10.66q-3.81,3.58-4.47,4.25Z"/></g></svg>