<?xml version="1.0" encoding="UTF-8"?>
<svg width="149px" height="31px" viewBox="0 0 149 31" version="1.1" xmlns="http://www.w3.org/2000/svg" xmlns:xlink="http://www.w3.org/1999/xlink">
    <!-- Generator: Sketch 50.2 (55047) - http://www.bohemiancoding.com/sketch -->
    <title>logo-header</title>
    <desc>Created with Sketch.</desc>
    <defs></defs>
    <g id="Desktop" stroke="none" stroke-width="1" fill="none" fill-rule="evenodd">
        <g id="Desktop---Landing-page" transform="translate(-70.000000, -34.000000)" fill="#A5C8B4" fill-rule="nonzero">
            <g id="logo-header" transform="translate(70.000000, 34.000000)">
                <path d="M0,31 L0,1.35925982 L4.5566343,1.35925982 L5.11286408,4.13640623 C5.83279517,3.0053916 6.88439669,2.12563496 8.12317961,1.61801402 C9.15220595,1.20393035 10.2516331,0.994085445 11.3604369,1.00012683 C11.5799622,1.00012683 11.8024542,1.00681875 12.0279126,1.02020259 C13.5649619,1.09954291 15.071867,1.4783743 16.4644013,2.13552243 C17.6747835,2.69928742 18.7448723,3.52601445 19.5970874,4.55576649 C20.3731351,5.5196973 20.9754788,6.61198776 21.3770227,7.78350212 C21.7887213,8.9636589 21.9993231,10.2048799 22,11.455135 C22,14.4427051 21.0002697,16.9276378 19.0008091,18.9099329 C17.0013484,20.892228 14.3722357,21.8833756 11.1134709,21.8833756 C8.57112999,21.8833756 6.68143204,20.9747617 5.44437702,19.1575339 L5.44437702,30.9977694 L0,31 Z M5.66019417,11.3101435 L5.66019417,11.4328287 C5.66019417,13.0537602 6.15486785,14.3973488 7.14421521,15.4635946 C8.17509439,16.5580951 9.57679342,17.1053454 11.3493123,17.1053454 C13.1218312,17.1053454 14.5035059,16.5454548 15.4943366,15.4256737 C16.9356942,13.7822862 17.366641,11.480846 16.6179207,9.42525293 C16.3773,8.76663459 16.0250361,8.15462497 15.5766586,7.61620415 C15.091048,7.04180884 14.4826996,6.58437441 13.7967233,6.27782033 C13.0279471,5.93054192 12.1924318,5.75691711 11.3493123,5.76923448 C9.64502427,5.76923448 8.27076591,6.28971708 7.22653722,7.33068227 C6.18230852,8.37164745 5.66019417,9.69813452 5.66019417,11.3101435 Z" id="Shape"></path>
                <path d="M75,31 L75,1.35925982 L79.5570952,1.35925982 L80.1133812,4.13640623 C80.8333851,3.0053916 81.885093,2.12563496 83.1240012,1.61801402 C84.1531316,1.20393035 85.25267,0.994085445 86.3615859,1.00012683 C86.5811335,1.00012683 86.8036479,1.00681875 87.0291292,1.02020259 C88.5663339,1.09954291 90.0733914,1.4783743 91.4660666,2.13552243 C92.6765711,2.69928742 93.7467683,3.52601445 94.5990695,4.55576649 C95.3751957,5.5196973 95.9776003,6.61198776 96.3791848,7.78350212 C96.790168,8.96378939 97.0000383,10.2050068 97,11.455135 C97,14.4427051 96.0001686,16.9276378 94.0005057,18.9099329 C92.0008429,20.892228 89.3714642,21.8833756 86.1123698,21.8833756 C83.5697718,21.8833756 81.6798827,20.9747617 80.4427025,19.1575339 L80.4427025,30.9977694 L75,31 Z M80.6585415,11.3101435 L80.6585415,11.4328287 C80.6585415,13.0537602 81.1532652,14.3973488 82.1427127,15.4635946 C83.1736961,16.5580951 84.5755369,17.1053454 86.3482351,17.1053454 C88.1209332,17.1053454 89.5057146,16.5454548 90.5025791,15.4256737 C91.9402479,13.7800485 92.3669275,11.4788433 91.6151512,9.42525293 C91.3745061,8.76663459 91.0222067,8.15462497 90.5737838,7.61620415 C90.0881241,7.04180884 89.4797141,6.58437441 88.7936685,6.27782033 C88.0248145,5.93054192 87.1892147,5.75691711 86.3460099,5.76923448 C84.6415495,5.76923448 83.2671522,6.28971708 82.2228178,7.33068227 C81.1784835,8.37164745 80.6570581,9.69813452 80.6585415,11.3101435 Z" id="Shape"></path>
                <path d="M26.0014166,14.4277964 C25.9787236,13.4254289 26.2290311,12.4353913 26.7262772,11.5607659 C27.1976194,10.7528572 27.8868235,10.0894852 28.7174064,9.64426623 C29.5858727,9.17726357 30.5178657,8.83561445 31.4848524,8.6297785 C32.5575527,8.4037033 33.6520478,8.29351783 34.748962,8.3011727 L41.1630829,8.3011727 C40.8589356,7.25951521 40.1785223,6.36363006 39.2502565,5.78259665 C38.349463,5.19491609 37.3026215,4.86160937 36.2232926,4.81883331 L35.9324535,4.81883331 C34.9302585,4.8224268 33.9379159,5.01403121 33.0084018,5.38341779 C32.0312171,5.74046562 31.1775403,6.36473272 30.5474556,7.18303079 L27.0685724,4.15941629 C28.9001131,1.38648318 31.9375173,1.66189388e-05 36.1807853,1.66189388e-05 C37.4913259,-0.00208037576 38.7944169,0.19428543 40.044471,0.582244357 C41.2569044,0.95196529 42.4012633,1.51116776 43.4338651,2.23850584 C44.4519053,2.96416361 45.2857732,3.91222953 45.8702019,5.00849841 C46.4914803,6.16227565 46.8084458,7.45154378 46.7919382,8.75769217 L46.7919382,16.3288582 L47,20.4662038 L42.0781075,20.4662038 L41.5590715,17.819714 C40.8328738,18.8855003 39.7951601,19.7084802 38.5835638,20.1795007 C37.2730063,20.7265693 35.8634286,21.0056761 34.4402251,20.9999125 C33.3941346,20.992108 32.3531642,20.8550388 31.34167,20.591912 C30.3942023,20.3456794 29.4893379,19.9613776 28.6570014,19.451716 C27.8408947,18.9480865 27.1729002,18.2424476 26.7195655,17.4050973 C26.2289153,16.4883919 25.9818468,15.4640955 26.0014166,14.4277964 Z M32.1582568,15.6451817 C32.5862562,15.9695043 33.0823073,16.1955429 33.6102151,16.3068041 C34.0670992,16.4014838 34.5326612,16.4495211 34.9995311,16.4501556 L35.1650857,16.4501556 C35.8202406,16.4375669 36.4727056,16.3637223 37.1137077,16.2296148 C37.7548334,16.0921281 38.3752197,15.8734477 38.9594174,15.5790194 C39.5707679,15.2737549 40.0969391,14.8254869 40.4919157,14.2734178 C40.9216999,13.6632562 41.1921885,12.9580183 41.2794185,12.2201829 L34.5677469,12.2201829 C33.8052618,12.2089655 33.0559292,12.4166224 32.4110631,12.8178485 C31.829697,13.1292707 31.4700498,13.7314672 31.4759035,14.3836882 C31.4807467,14.8893334 31.736487,15.3605855 32.160494,15.6451817 L32.1582568,15.6451817 Z" id="Shape"></path>
                <path d="M50.0014165,14.4277846 C49.9787258,13.4254182 50.2290067,12.4353817 50.7261998,11.5607572 C51.1974919,10.7528493 51.8866225,10.0894781 52.717117,9.6442596 C53.5854907,9.17725744 54.5173844,8.83560868 55.4842681,8.62977296 C56.5568541,8.403698 57.6512327,8.29351265 58.7480301,8.30116751 L65.1547567,8.30116751 C64.8517647,7.26020561 64.1730919,6.36442258 63.246608,5.78259418 C62.3459105,5.19491425 61.2991806,4.86160789 60.2199666,4.81883188 L59.9291584,4.81883188 C58.9270702,4.82242535 57.9348334,5.01402956 57.0054183,5.38341574 C56.0283377,5.74046319 55.1747518,6.36472961 54.5447342,7.18302681 L51.0572737,4.15941556 C52.8960758,1.38648543 55.9368849,2.03701848e-05 60.1797008,2.03701848e-05 C61.4908517,-0.00230258855 62.7945758,0.194065629 64.0452119,0.582247481 C65.2575162,0.951968017 66.4017532,1.51116988 67.434245,2.23850718 C68.4521767,2.96416417 69.2859558,3.91222907 69.8703223,5.00849677 C70.4915344,6.16227277 70.8084662,7.45153951 70.7919603,8.7576865 L70.7919603,16.3288443 L71,20.4661855 L66.0786318,20.4661855 L65.5596511,17.8196986 C64.8335307,18.8854837 63.7959275,19.7084627 62.5844603,20.1794827 C61.2726564,20.7271365 59.8616463,21.006255 58.4370891,20.9998937 C57.39111,20.9920891 56.3502504,20.8550201 55.3388641,20.5918936 C54.3914972,20.3456612 53.4867292,19.9613599 52.6544814,19.4516988 C51.8384616,18.9480698 51.1705383,18.2424317 50.7172519,17.4050823 C50.2274302,16.4881759 49.9811602,15.4638916 50.0014165,14.4277846 Z M56.1576008,15.6451686 C56.5855546,15.9694909 57.0815528,16.1955292 57.6094044,16.3067903 C58.0662399,16.4014699 58.5317523,16.4495072 58.9985724,16.4501417 L59.1641094,16.4501417 C59.8191945,16.4375529 60.47159,16.3637084 61.1125238,16.2296011 C61.7535813,16.0921145 62.3739015,15.8734344 62.9580369,15.5790064 C63.5706412,15.2727955 64.0975966,14.8229519 64.492609,14.2689954 C64.9223473,13.6588344 65.1928072,12.9535973 65.2800279,12.2157627 L58.5690712,12.2157627 C57.8066673,12.2045453 57.0574146,12.4122019 56.4126171,12.8134276 C55.8264232,13.1232304 55.4628565,13.7279819 55.4686092,14.3836765 C55.4744627,14.890143 55.7319384,15.3615618 56.1576008,15.6451686 Z" id="Shape"></path>
                <path d="M103.932117,19.0864992 C101.977372,17.1351776 101,14.6157213 101,11.5281302 C101,8.44053914 101.987591,5.91282724 103.962774,3.94499451 C105.937956,1.98166484 108.481022,1 111.591971,1 C115.00073,1 117.651825,2.14752717 119.545255,4.4425815 C121.181752,6.43142846 122,8.96289291 122,12.0369748 C122,12.5233042 121.979562,13.0171387 121.938686,13.5184782 L106.478832,13.5184782 C106.582997,14.1830482 106.833129,14.8144597 107.210219,15.3647286 C107.554348,15.8675709 108.009978,16.2789359 108.539416,16.5647913 C109.048989,16.8390952 109.591669,17.0427549 110.153285,17.1704515 C110.733323,17.2980517 111.325092,17.3607089 111.918248,17.3573281 C114.232117,17.3573281 115.754015,16.6758666 116.483942,15.3129435 L120.863504,16.8890109 C119.091241,20.2963185 115.959854,21.9999723 111.469343,21.9999723 C108.39927,22.0059764 105.886861,21.0348187 103.932117,19.0864992 Z M106.478832,9.36441484 L116.788321,9.36441484 C116.565415,8.21931381 115.888552,7.22148912 114.920438,6.61079994 C113.937972,5.97310747 112.797561,5.64009872 111.635766,5.65165035 C110.459248,5.62727961 109.302976,5.96863994 108.318248,6.63106366 C107.380245,7.2589361 106.719665,8.24054937 106.478832,9.36441484 Z" id="Shape"></path>
                <path d="M126,21.9977122 L126,1.46671751 L130.787277,1.46671751 L131.150054,3.8712278 C132.383802,1.95707593 134.199217,1 136.596299,1 C137.792307,1.00631809 138.977477,1.2263853 140.095489,1.64974398 C141.233469,2.06031705 142.237624,2.77217632 143,3.70879181 L140.511075,7.4082144 C139.548185,6.49441668 138.265788,5.99051742 136.936116,6.00348622 C135.565662,5.97888651 134.240144,6.49060253 133.244057,7.42880488 C132.21461,8.38020399 131.625488,9.71319318 131.616153,11.1122127 L131.616153,22 L126,21.9977122 Z" id="Shape"></path>
                <g id="Group" opacity="0.5" transform="translate(141.000000, 14.000000)">
                    <path d="M0.75,10.1030769 C0.916666667,9.89384615 1.2625,9.42384615 1.7875,8.69307692 C2.26636147,8.04337584 2.69332425,7.36234354 3.065,6.65538462 C2.20981037,6.53741039 1.43461045,6.12521618 0.895,5.50153846 C0.413993533,4.9072292 0.159916194,4.18253056 0.1725,3.44076923 C0.133329497,2.51209271 0.525320443,1.61211564 1.25,0.966923077 C2.43316362,0.0231001461 4.09947871,-0.207156637 5.53019216,0.375472344 C6.96090562,0.958101324 7.90003751,2.24937343 7.9425,3.69230769 C7.9425,5.19025532 7.41616596,6.64779574 6.4425,7.84615385 C5.66868915,8.87146969 4.79686709,9.83069278 3.8375,10.7123077 C3.0975,11.3538462 2.66333333,11.7346154 2.535,11.8546154 L0.75,10.1030769 Z" id="Shape"></path>
                </g>
            </g>
        </g>
    </g>
</svg>