<?xml version="1.0" encoding="utf-8"?>
<!-- Generator: Adobe Illustrator 21.1.0, SVG Export Plug-In . SVG Version: 6.00 Build 0)  -->
<svg version="1.1" id="Calque_1" xmlns="http://www.w3.org/2000/svg" xmlns:xlink="http://www.w3.org/1999/xlink" x="0px" y="0px"
	 viewBox="0 0 139.5 141.2" style="enable-background:new 0 0 139.5 141.2;" xml:space="preserve">
<style type="text/css">
	.st0{fill:#E6A587;}
	.st1{clip-path:url(#SVGID_2_);}
	.st2{fill:#A5C8B4;}
	.st3{fill:#FFFCFA;}
	.st4{fill:#E6E6E6;}
	.st5{fill:#737373;}
	.st6{fill:#373737;}
	.st7{fill:#B7D3C3;}
</style>
<title>mailbox</title>
<g id="Layer_2">
	<g id="Calque_1_1_">
		<circle class="st0" cx="69.8" cy="69.8" r="69.8"/>
		<g>
			<defs>
				<circle id="SVGID_1_" cx="70.8" cy="69.8" r="69.8"/>
			</defs>
			<clipPath id="SVGID_2_">
				<use xlink:href="#SVGID_1_"  style="overflow:visible;"/>
			</clipPath>
			<g class="st1">
				<path class="st2" d="M72.2,52.3v9.4H33.5v-9.4c0-10.4,8.7-18.8,19.3-18.8S72.2,41.9,72.2,52.3z"/>
				<polygon class="st3" points="72.2,57.5 72.2,60.8 52.4,75.3 28.1,57.5 36.9,57.5 				"/>
				<polygon class="st4" points="72.2,60.8 72.2,88.2 28.1,88.2 28.1,57.5 52.4,75.3 				"/>
				<polygon class="st5" points="85.1,105 85.1,141.2 72.2,141.2 72.2,91.4 85.1,91.4 				"/>
				<polygon class="st6" points="78.7,91.4 78.7,105 78.7,141.2 85.1,141.2 85.1,105 85.1,91.4 				"/>
				<path class="st7" d="M84.3,58.5c-2.2,0-3.9,1.8-3.8,4c0,2.2,1.8,3.9,4,3.8c2.1,0,3.8-1.8,3.8-3.9C88.2,60.3,86.5,58.5,84.3,58.5
					z M93.2,33.5h3.2c10.7,0,19.3,8.4,19.3,18.8v39.1H72.2V52.3c0-10.4-8.7-18.8-19.3-18.8h27.4v4.7h12.9V33.5z"/>
				<path class="st2" d="M96.4,33.5h-3.2v0.3c9.2,1.4,16,9.2,16.1,18.5v39.1h6.4V52.3C115.7,41.9,107.1,33.5,96.4,33.5z"/>
				<path class="st4" d="M81.9,63.2c-0.9,0-1.6-0.7-1.6-1.6l0,0V28.5c0-0.9,0.7-1.6,1.6-1.6s1.6,0.7,1.6,1.6v33.1
					C83.5,62.5,82.8,63.2,81.9,63.2z"/>
				<circle class="st4" cx="84.3" cy="62.5" r="4"/>
				<polygon class="st4" points="93.2,33.4 93.2,38.2 80.3,38.2 80.3,33.4 80.3,28.6 93.2,28.6 				"/>
				<circle class="st3" cx="84.3" cy="61.6" r="4"/>
				<polygon class="st3" points="93.2,31.8 93.2,36.6 80.3,36.6 80.3,31.8 80.3,26.9 93.2,26.9 				"/>
				<path class="st2" d="M18.9,88.2c-0.9,0-1.6,0.7-1.6,1.6s0.7,1.6,1.6,1.6h53.3v-3.2H18.9z"/>
			</g>
		</g>
		<path class="st6" d="M80.1,128c0.8,0,1.5-0.7,1.5-1.5S81,125,80.1,125s-1.5,0.7-1.5,1.5S79.3,128,80.1,128z"/>
	</g>
</g>
</svg>
