<?xml version="1.0" encoding="UTF-8"?>
<svg width="25px" height="25px" viewBox="0 0 25 25" version="1.1" xmlns="http://www.w3.org/2000/svg" xmlns:xlink="http://www.w3.org/1999/xlink">
    <!-- Generator: Sketch 50.2 (55047) - http://www.bohemiancoding.com/sketch -->
    <title>Group 8</title>
    <desc>Created with Sketch.</desc>
    <defs></defs>
    <g id="Mobile" stroke="none" stroke-width="1" fill="none" fill-rule="evenodd">
        <g id="Mobile---Ma-boîte-aux-lettres" transform="translate(-20.000000, -875.000000)">
            <g id="Group-8" transform="translate(20.000000, 875.000000)">
                <circle id="Oval-4-Copy" fill="#E6A587" cx="12.5" cy="12.5" r="12.5"></circle>
                <g id="mail" transform="translate(6.000000, 7.000000)" fill="#FFFCFA" fill-rule="nonzero">
                    <g id="Combined-Shape">
                        <path d="M12.99992,1.82273144 C13.0000159,1.82876326 13.0000255,1.83479322 12.9999493,1.84081928 L12.9999493,9.16666667 C12.9999493,10.1763962 12.2035783,11 11.2272358,11 L1.77276417,11 C0.796421712,11 5.07352405e-05,10.1763962 5.07352405e-05,9.16666667 L5.07352405e-05,1.84081928 C-2.55121188e-05,1.83479322 -1.58709214e-05,1.82876326 8.00145574e-05,1.82273144 C0.0056310185,0.817845044 0.799841046,0 1.77276417,0 L11.2272358,0 C12.2001589,0 12.994369,0.817845044 12.99992,1.82273144 Z M11.7551633,1.56074637 C11.6574394,1.36089752 11.4564839,1.22222222 11.2272358,1.22222222 L1.77276417,1.22222222 C1.54351614,1.22222222 1.34256063,1.36089752 1.24483674,1.56074637 L6.50000002,5.36515491 L11.7551633,1.56074637 Z M11.8181403,3.00706729 L6.83886146,6.61175283 C6.63540117,6.75904533 6.36459887,6.75904533 6.16113852,6.61175283 L1.18185969,3.00706729 L1.18185969,9.16666667 C1.18185969,9.50138157 1.44911678,9.77777778 1.77276417,9.77777778 L11.2272358,9.77777778 C11.5508832,9.77777778 11.8181403,9.50138157 11.8181403,9.16666667 L11.8181403,3.00706729 Z" id="path-1"></path>
                    </g>
                </g>
            </g>
        </g>
    </g>
</svg>