<svg version="1.1" class="package svg" xmlns="http://www.w3.org/2000/svg" xmlns:xlink="http://www.w3.org/1999/xlink" x="0px" y="0px"
	 viewBox="0 0 22 23.5" style="enable-background:new 0 0 22 23.5;" xml:space="preserve">
<g>
	<path class="st0" d="M21.2,4.9c0-0.1-0.1-0.1-0.2-0.1c-0.2-0.2-0.4-0.4-0.7-0.5l-8-4C11.9,0.1,11.5,0,11,0h0c-0.3,0-0.7,0.1-1,0.2
		c-0.1,0-0.2,0.1-0.3,0.1l-4,2L5.5,2.4L1.7,4.3C1.5,4.4,1.4,4.5,1.3,4.5C0.5,5.1,0,6,0,7v9.5c0,0,0,0,0,0c0,1.1,0.6,2.2,1.6,2.7l8,4
		c0.4,0.2,0.9,0.3,1.4,0.3c0.5,0,0.9-0.1,1.3-0.3l8-4c1-0.5,1.7-1.5,1.7-2.7V7C22,6.2,21.7,5.5,21.2,4.9z M10.6,2.1
		C10.7,2,10.8,2,11,2c0.1,0,0.1,0,0.2,0c0.1,0,0.2,0,0.2,0.1l7.3,3.6L16,7.1L8.2,3.3L10.6,2.1z M10,21.2l-7.5-3.7
		c-0.1,0-0.2-0.1-0.2-0.2C2.1,17.1,2,16.8,2,16.5V7.4l8,4V21.2z M3.2,5.8L6,4.4l7.8,3.9L11,9.6L3.2,5.8z M20,16.5
		c0,0.2,0,0.4-0.3,0.7c-0.1,0.1-0.1,0.1-0.2,0.2L12,21.2v-9.8l4.4-2.2l0,0L20,7.4V16.5z"/>
	<g>
		<path class="st0" d="M2.6,17.4c-0.1,0-0.2-0.1-0.2-0.2C2.4,17.3,2.5,17.4,2.6,17.4l7.5,3.7L2.6,17.4z M19.4,17.4L12,21.2
			L19.4,17.4c0.1,0,0.2-0.1,0.2-0.2C19.6,17.3,19.5,17.4,19.4,17.4z"/>
		<path d="M21.2,4.9c0-0.1-0.1-0.1-0.2-0.1c-0.2-0.2-0.4-0.4-0.7-0.5l-8-4C11.9,0.1,11.5,0,11,0h0c-0.3,0-0.7,0.1-1,0.2
			c-0.1,0-0.2,0.1-0.3,0.1l-4,2L5.5,2.4L1.7,4.3C1.5,4.4,1.4,4.5,1.3,4.5C0.5,5.1,0,6,0,7v9.5c0,0,0,0,0,0c0,1.1,0.6,2.2,1.6,2.7
			l8,4c0.4,0.2,0.9,0.3,1.4,0.3c0.5,0,0.9-0.1,1.3-0.3l8-4c1-0.5,1.7-1.5,1.7-2.7V7C22,6.2,21.7,5.5,21.2,4.9z M10.6,2.1
			C10.7,2,10.9,2,11,2c0.1,0,0.1,0,0.2,0c0.1,0,0.2,0,0.2,0.1l7.3,3.6L16,7.1L8.2,3.3L10.6,2.1z M10,21.2l-7.5-3.7
			c-0.1,0-0.2-0.1-0.2-0.2C2.1,17.1,2,16.8,2,16.5V7.4l8,4V21.2z M3.2,5.8L6,4.4l7.8,3.9L11,9.6L3.2,5.8z M20,16.5
			c0,0.2,0,0.4-0.3,0.7c-0.1,0.1-0.1,0.1-0.2,0.2L12,21.2v-9.8l4.4-2.2l0,0L20,7.4V16.5z"/>
	</g>
</g>
</svg>
