<svg version="1.1" id="Calque_1" xmlns="http://www.w3.org/2000/svg" xmlns:xlink="http://www.w3.org/1999/xlink" x="0px" y="0px"
	 viewBox="0 0 21.4 21.4" style="enable-background:new 0 0 21.4 21.4;" xml:space="preserve">
<g>
	<path class="svg" d="M15.1,10.8L15,10.7l0.1-0.1c1-1.1,1.5-2.4,1.5-3.9c0-3.3-2.6-6-5.9-6s-6,2.6-6,6c0,1.4,0.5,2.7,1.5,3.9
		l0.1,0.1l-0.2,0.1c-3.3,1.8-5.4,5.2-5.4,8.9c0,0.3,0.1,0.4,0.3,0.7c0.1,0.2,0.2,0.2,0.5,0.3c0,0,0.1,0,0.1,0h18.2
		c0.3,0,0.4-0.1,0.7-0.3c0.2-0.2,0.2-0.3,0.3-0.6v-0.1C20.7,16,18.5,12.5,15.1,10.8z M10.7,2.6c2.3,0,4,1.8,4,4.1c0,2.2-1.8,4-4,4
		c-2.2,0-4.1-1.9-4.1-4C6.6,4.5,8.5,2.6,10.7,2.6z M18.7,18.7H2.7l0-0.2c0.4-3,2.5-5.5,5.4-6.5l0.1,0l0.1,0c1.6,0.8,3.3,0.8,4.9,0
		l0.1,0l0.1,0c2.9,1,5,3.6,5.4,6.5L18.7,18.7z"/>
</g>
</svg>
