<?xml version="1.0" encoding="UTF-8"?>
<svg width="12px" height="12px" viewBox="0 0 12 12" version="1.1" xmlns="http://www.w3.org/2000/svg" xmlns:xlink="http://www.w3.org/1999/xlink">
    <!-- Generator: Sketch 50.2 (55047) - http://www.bohemiancoding.com/sketch -->
    <title>Star</title>
    <desc>Created with Sketch.</desc>
    <defs></defs>
    <g id="Mobile" stroke="none" stroke-width="1" fill="none" fill-rule="evenodd">
        <g id="Mobile---Communauté" transform="translate(-316.000000, -186.000000)" fill="#FFFCFA" fill-rule="nonzero">
            <g id="Star" transform="translate(316.000000, 186.000000)">
                <g id="Layer_2">
                    <g>
                        <path d="M11.9631695,4.64307442 C11.8759284,4.37485781 11.6456013,4.17825213 11.3670145,4.13420052 L8.19583388,3.63348285 L6.67783717,0.428927286 C6.55373432,0.166992965 6.28982595,1.7749537e-17 5.99997926,0 C5.71013257,-1.77469959e-17 5.4462242,0.166992965 5.32212135,0.428927286 L3.80421839,3.63348285 L0.633037748,4.13410677 C0.354373946,4.17810979 0.123976112,4.37476765 0.0367599024,4.64306434 C-0.0504563074,4.91136103 0.0202647925,5.20590474 0.219788642,5.40535402 L2.56090858,7.7465677 L1.88947253,11.1029979 C1.83222782,11.3896392 1.94671021,11.6834263 2.18280695,11.8557588 C2.41890369,12.0280913 2.73360579,12.0475759 2.98915765,11.9056837 L6.00002613,10.2329998 L9.01080087,11.9056837 C9.26634654,12.0476629 9.5811015,12.0282176 9.81722795,11.8558634 C10.0533544,11.6835092 10.1678154,11.3896598 10.110486,11.1029979 L9.43914369,7.7465677 L11.7802636,5.40526027 C11.9798024,5.20586012 12.0504864,4.91131287 11.9631695,4.64307442 Z" id="Icons"></path>
                    </g>
                </g>
            </g>
        </g>
    </g>
</svg>