<svg version="1.1" class="userPlus" xmlns="http://www.w3.org/2000/svg" xmlns:xlink="http://www.w3.org/1999/xlink" x="0px" y="0px"
	 viewBox="0 0 416.4 347" style="enable-background:new 0 0 416.4 347;" xml:space="preserve">
<g>
	<path d="M364.4,138.8H399c9.6,0,17.4,7.8,17.4,17.3s-7.8,17.4-17.4,17.4h-34.7v34.7c0,9.6-7.8,17.4-17.4,17.4
		c-9.6,0-17.3-7.8-17.3-17.4v-34.7h-34.7c-9.6,0-17.3-7.8-17.3-17.4s7.8-17.3,17.3-17.3h34.7v-34.7c0-9.6,7.8-17.3,17.3-17.3
		c9.6,0,17.4,7.8,17.4,17.3V138.8 M294.9,329.7c0,9.6-7.8,17.4-17.3,17.4c-9.6,0-17.4-7.8-17.4-17.4V295c0-28.7-23.3-52.1-52.1-52.1
		H86.7c-28.7,0-52.1,23.3-52.1,52.1v34.7c0,9.6-7.8,17.4-17.3,17.4S0,339.2,0,329.7V295c0-47.9,38.8-86.8,86.7-86.8h121.5
		c47.9,0,86.7,38.8,86.7,86.8V329.7 M147.5,173.5c-47.9,0-86.8-38.8-86.8-86.7C60.7,38.8,99.6,0,147.5,0c47.9,0,86.7,38.8,86.7,86.8
		C234.2,134.7,195.4,173.5,147.5,173.5 M147.5,138.8c28.7,0,52.1-23.3,52.1-52.1c0-28.7-23.3-52.1-52.1-52.1
		c-28.7,0-52.1,23.3-52.1,52.1C95.4,115.5,118.7,138.8,147.5,138.8"/>
</g>
</svg>
